<?xml version="1.0" standalone="no"?>
<!DOCTYPE svg PUBLIC "-//W3C//DTD SVG 20010904//EN"
 "http://www.w3.org/TR/2001/REC-SVG-20010904/DTD/svg10.dtd">
<svg version="1.0" xmlns="http://www.w3.org/2000/svg"
 width="140.000000pt" height="142.000000pt" viewBox="0 0 140.000000 142.000000"
 preserveAspectRatio="xMidYMid meet">

<g transform="translate(0.000000,142.000000) scale(0.100000,-0.100000)"
fill="#01034aff" stroke="none">
<path d="M113 1298 c-56 -68 -100 -124 -99 -126 2 -1 28 9 59 23 l57 25 0
-610 0 -610 150 0 150 0 2 269 3 269 273 -269 272 -269 89 0 88 0 -4 232 -4
233 -33 23 c-40 27 -121 42 -241 42 -49 1 -107 7 -128 14 -95 34 -159 112
-174 212 -8 47 -14 55 -140 174 l-132 125 -1 83 c0 92 1 93 69 62 24 -11 48
-20 53 -20 5 0 -38 54 -97 120 -59 66 -107 120 -109 120 -1 0 -47 -55 -103
-122z m867 -1118 c0 -34 -10 -25 -340 306 -331 332 -340 343 -340 380 l1 39
339 -345 c315 -320 340 -347 340 -380z"/>
<path d="M927 1053 c-74 -3 -88 -6 -83 -19 3 -8 9 -113 12 -234 l7 -220 36
-10 c20 -5 84 -10 144 -10 l107 0 2 230 c1 127 2 238 2 248 1 19 -47 22 -227
15z"/>
</g>
</svg>
